<svg xmlns="http://www.w3.org/2000/svg" viewBox="0 0 160 32" fill="none" aria-hidden="true">
  <circle cx="16" cy="16" r="10" stroke="currentColor" stroke-width="2"/>
  <path d="M16 8v16M8 16h16" stroke="currentColor" stroke-width="2"/>
  <path d="M34 26V6h5v8.2l9.8-8.2H55l-10.8 9.2L55.6 26H49l-7.4-9.8L39 26h-5Z" fill="currentColor"/>
  <path d="M60 26V6h5v20h-5Z" fill="currentColor"/>
  <path d="M70 26V6h8.4c4.2 0 7 2.6 7 6.6 0 4-2.8 6.6-7 6.6H75v6.8h-5Zm5-11.2h3.1c1.8 0 2.8-1 2.8-2.6 0-1.6-1-2.6-2.8-2.6H75v5.2Z" fill="currentColor"/>
  <path d="M88 26V6h5v20h-5Z" fill="currentColor"/>
  <path d="M98 26V6h5.4l9.2 14.2V6H118v20h-5.3L103.5 11.8V26H98Z" fill="currentColor"/>
  <path d="M124 26V6h8.4c4.2 0 7 2.6 7 6.6 0 4-2.8 6.6-7 6.6h-3.4v6.8H124Zm5-11.2h3.1c1.8 0 2.8-1 2.8-2.6 0-1.6-1-2.6-2.8-2.6h-3.1v5.2Z" fill="currentColor"/>
  <path d="M146 26V6h5v20h-5Z" fill="currentColor"/>
  <path d="M152 26V6h8v4h-3v16h-5V10h-3V6h8Z" fill="currentColor"/>
</svg>
